# xmcd
#
# Track frame offsets:
#	150
#	16359
#	34205
#	50404
#	66403
#	88744
#	111604
#	139858
#	161208
#	177396
#	200742
#	213832
#	230196
#	251558
#
# Disc length: 3582 seconds
#
# Revision: 0
# Processed by: cddbd v1.5.1PL0 Copyright (c) Steve Scherf et al.
# Submitted via: EZCDDA 4.3.3.2
#
DISCID=db0dfc0e
DTITLE=Black Eyed Peas - Elephunk
DYEAR=1900
DGENRE=
TTITLE0=Hands up
TTITLE1=Labor Day (it's a holiday)
TTITLE2=Let's get retarded
TTITLE3=Hey mama
TTITLE4=Shut up
TTITLE5=Smells like funk
TTITLE6=Latin girls
TTITLE7=Sexy
TTITLE8=Fly away
TTITLE9=The boogie that be
TTITLE10=The Apl song
TTITLE11=Anxiety
TTITLE12=Where is the love?
TTITLE13=Third eye
EXTD=
EXTT0=
EXTT1=
EXTT2=
EXTT3=
EXTT4=
EXTT5=
EXTT6=
EXTT7=
EXTT8=
EXTT9=
EXTT10=
EXTT11=
EXTT12=
EXTT13=
PLAYORDER=
